<svg width="14" height="18" viewBox="0 0 14 18" fill="none" xmlns="http://www.w3.org/2000/svg">
<path d="M0.947266 4.47046H2.31042H13.2157" stroke="white" stroke-width="1.36315" stroke-linecap="round" stroke-linejoin="round"/>
<path d="M11.8526 4.47045V14.0125C11.8526 14.3741 11.709 14.7208 11.4534 14.9764C11.1977 15.2321 10.851 15.3757 10.4895 15.3757H3.6737C3.31217 15.3757 2.96545 15.2321 2.70981 14.9764C2.45416 14.7208 2.31055 14.3741 2.31055 14.0125V4.47045M4.35528 4.47045V3.10729C4.35528 2.74576 4.4989 2.39904 4.75454 2.1434C5.01018 1.88776 5.3569 1.74414 5.71843 1.74414H8.44474C8.80627 1.74414 9.15299 1.88776 9.40864 2.1434C9.66428 2.39904 9.80789 2.74576 9.80789 3.10729V4.47045" stroke="white" stroke-width="1.36315" stroke-linecap="round" stroke-linejoin="round"/>
<path d="M5.71875 7.8783V11.9678" stroke="white" stroke-width="1.36315" stroke-linecap="round" stroke-linejoin="round"/>
<path d="M8.44434 7.8783V11.9678" stroke="white" stroke-width="1.36315" stroke-linecap="round" stroke-linejoin="round"/>
</svg>
