<svg width="16" height="16" viewBox="0 0 16 16" fill="none" xmlns="http://www.w3.org/2000/svg">
<path d="M10.999 1.94279C11.1741 1.76769 11.382 1.6288 11.6108 1.53404C11.8395 1.43928 12.0847 1.3905 12.3324 1.3905C12.58 1.3905 12.8252 1.43928 13.054 1.53404C13.2827 1.6288 13.4906 1.76769 13.6657 1.94279C13.8408 2.11788 13.9797 2.32575 14.0744 2.55453C14.1692 2.7833 14.218 3.0285 14.218 3.27612C14.218 3.52374 14.1692 3.76894 14.0744 3.99772C13.9797 4.22649 13.8408 4.43436 13.6657 4.60945L4.66569 13.6095L0.999023 14.6095L1.99902 10.9428L10.999 1.94279Z" stroke="white" stroke-width="1.33333" stroke-linecap="round" stroke-linejoin="round"/>
</svg>
